# File created by Blade
# Date/Time:  Thu Sep 25 19:32:06 2014
# Frame Rate: 120.000 fps
#------------------------------------------------------
:FULLY-SPECIFIED
:DEGREES
3261
root -3.173792 33.082151 -0.480375 -8.809183 -48.770796 14.434413
Spine -2.060147 39.586904 -0.304107
Head -20.492178 72.261785 -24.848801
LeftShoulder -25.020026 23.014497 16.622423
LeftArm 10.077063 -20.799564 -44.183111
LeftForeArm 14.005723 0.000000 14.237689
LeftHand -30.983088 -0.000000 3.611493
LeftHandThumb1 -26.253704 0.000000 33.147579
RightShoulder -13.961217 13.800499 -25.471843
RightArm -15.321757 -13.277176 84.297949
RightForeArm 12.412859 -0.000000 59.763424
RightHand -1.867831 -0.000000 13.197298
RightHandThumb1 -24.326973 -0.000000 -32.862282
LeftUpLeg -98.715346 -30.631988 -18.079310
LeftLeg 110.464028 -0.000000 -0.000000
LeftFoot 20.958642 4.964757 -15.215033
LeftToeBase 11.407557 -0.000000 -0.000000
RightUpLeg -10.687241 17.243641 -8.848253
RightLeg 27.010322 -0.000000 -0.000000
RightFoot -16.248440 10.218322 -8.502253
RightToeBase -13.282525 -0.000000 0.000000
3262
root -3.177431 33.085585 -0.472272 -8.911613 -48.900576 14.472157
Spine -2.024024 39.730505 -0.259320
Head -20.610011 72.287092 -24.870073
LeftShoulder -25.013777 23.001472 16.633614
LeftArm 10.066056 -20.781577 -44.195515
LeftForeArm 14.038841 0.000000 14.187668
LeftHand -30.953595 -0.000000 3.477081
LeftHandThumb1 -26.253704 0.000000 33.147579
RightShoulder -13.969444 13.781101 -25.426984
RightArm -15.407888 -13.291691 84.172937
RightForeArm 12.399749 -0.000000 59.830413
RightHand -1.903168 -0.000000 13.237500
RightHandThumb1 -24.326973 -0.000000 -32.862282
LeftUpLeg -98.580680 -30.641075 -18.235074
LeftLeg 110.463479 -0.000000 -0.000000
LeftFoot 20.959020 5.017892 -15.093107
LeftToeBase 12.347902 -0.000000 -0.000000
RightUpLeg -10.619319 17.294726 -8.851269
RightLeg 26.975131 -0.000000 -0.000000
RightFoot -16.210254 10.321700 -8.532339
RightToeBase -13.396748 -0.000000 0.000000
3263
root -3.184336 33.087078 -0.467662 -8.962610 -49.016798 14.453553
Spine -2.005997 39.845340 -0.194318
Head -20.674545 72.328649 -24.840567
LeftShoulder -25.005706 22.997983 16.661555
LeftArm 10.030448 -20.790109 -44.223401
LeftForeArm 14.025561 -0.000000 14.183088
LeftHand -30.922661 -0.000000 3.367602
LeftHandThumb1 -26.253704 0.000000 33.147579
RightShoulder -13.991799 13.744984 -25.360787
RightArm -15.455091 -13.401282 84.026779
RightForeArm 12.410144 -0.000000 59.918647
RightHand -1.984705 -0.000000 13.136391
RightHandThumb1 -24.326973 -0.000000 -32.862282
LeftUpLeg -98.463309 -30.646751 -18.355018
LeftLeg 110.489693 -0.000000 -0.000000
LeftFoot 20.960416 5.013974 -14.813943
LeftToeBase 12.314784 -0.000000 -0.000000
RightUpLeg -10.559037 17.242690 -8.816491
RightLeg 26.955289 -0.000000 -0.000000
RightFoot -16.187348 10.537006 -8.656683
RightToeBase -13.526143 -0.000000 0.000000
3264
root -3.189840 33.087565 -0.464016 -8.981019 -49.133778 14.408906
Spine -2.009236 39.956482 -0.105818
Head -20.551407 72.410878 -24.645315
LeftShoulder -24.976486 22.995113 16.707330
LeftArm 9.960551 -20.817604 -44.270282
LeftForeArm 14.002761 -0.000000 14.204500
LeftHand -30.872327 0.000000 3.230478
LeftHandThumb1 -26.253704 0.000000 33.147579
RightShoulder -13.986126 13.705656 -25.320681
RightArm -15.548880 -13.468951 83.914999
RightForeArm 12.324357 0.000000 60.036337
RightHand -2.059893 0.000000 13.008851
RightHandThumb1 -24.326973 -0.000000 -32.862282
LeftUpLeg -98.348098 -30.667695 -18.442079
LeftLeg 110.483787 -0.000000 -0.000000
LeftFoot 21.051775 5.061923 -14.992530
LeftToeBase 12.476153 -0.000000 -0.000000
RightUpLeg -10.517275 17.154112 -8.763288
RightLeg 26.919223 -0.000000 -0.000000
RightFoot -16.143215 10.669256 -8.739909
RightToeBase -13.754683 -0.000000 0.000000
3265
root -3.194462 33.087808 -0.459808 -8.987165 -49.256600 14.362052
Spine -2.019946 40.075884 -0.022548
Head -20.508298 72.417862 -24.557877
LeftShoulder -24.990958 22.997518 16.728932
LeftArm 9.952309 -20.776945 -44.298357
LeftForeArm 13.956851 -0.000000 14.184371
LeftHand -30.763564 -0.000000 3.136025
LeftHandThumb1 -26.253704 0.000000 33.147579
RightShoulder -14.008385 13.678224 -25.312022
RightArm -15.663533 -13.497810 83.834294
RightForeArm 12.267732 -0.000000 60.142711
RightHand -2.145584 -0.000000 12.955793
RightHandThumb1 -24.326973 -0.000000 -32.862282
LeftUpLeg -98.251083 -30.707543 -18.532405
LeftLeg 110.499888 -0.000000 -0.000000
LeftFoot 21.034098 5.144760 -15.041851
LeftToeBase 12.525323 -0.000000 -0.000000
RightUpLeg -10.488631 17.107880 -8.717711
RightLeg 26.902445 -0.000000 -0.000000
RightFoot -16.107555 10.858900 -8.872036
RightToeBase -13.953680 -0.000000 0.000000
3266
root -3.202501 33.087484 -0.456986 -8.990660 -49.361336 14.303416
Spine -2.032516 40.183547 0.051151
Head -20.418341 72.479008 -24.387118
LeftShoulder -24.958115 22.950627 16.795027
LeftArm 9.868437 -20.696934 -44.308784
LeftForeArm 14.033778 0.000000 14.167619
LeftHand -30.661344 -0.000000 3.165968
LeftHandThumb1 -26.253704 0.000000 33.147579
RightShoulder -14.031763 13.639309 -25.282428
RightArm -15.805248 -13.461725 83.772030
RightForeArm 12.298915 -0.000000 60.291237
RightHand -2.218381 -0.000000 12.881709
RightHandThumb1 -24.326973 -0.000000 -32.862282
LeftUpLeg -98.146640 -30.752995 -18.644075
LeftLeg 110.521035 -0.000000 -0.000000
LeftFoot 21.129553 5.252707 -15.117660
LeftToeBase 12.244243 -0.000000 -0.000000
RightUpLeg -10.438944 17.034784 -8.648357
RightLeg 26.862205 -0.000000 -0.000000
RightFoot -16.108735 10.961807 -8.966111
RightToeBase -13.993056 -0.000000 0.000000
3267
root -3.211689 33.085951 -0.456967 -8.958561 -49.466183 14.208927
Spine -2.045156 40.275886 0.141133
Head -20.503147 72.481720 -24.391985
LeftShoulder -24.962123 22.940705 16.819279
LeftArm 9.830073 -20.734309 -44.316871
LeftForeArm 13.966653 -0.000000 14.178951
LeftHand -30.658275 -0.000000 3.072428
LeftHandThumb1 -26.253704 0.000000 33.147579
RightShoulder -14.065067 13.583428 -25.258917
RightArm -15.936838 -13.415541 83.727070
RightForeArm 12.273090 -0.000000 60.431948
RightHand -2.230507 -0.000000 12.808714
RightHandThumb1 -24.326973 -0.000000 -32.862282
LeftUpLeg -98.061607 -30.788298 -18.727818
LeftLeg 110.544368 -0.000000 -0.000000
LeftFoot 21.214055 5.172938 -15.078175
LeftToeBase 12.499757 -0.000000 -0.000000
RightUpLeg -10.398663 16.995507 -8.553309
RightLeg 26.828473 -0.000000 -0.000000
RightFoot -16.056767 11.062851 -9.019289
RightToeBase -14.247225 -0.000000 0.000000
3268
root -3.220696 33.084303 -0.457452 -8.924748 -49.558163 14.117604
Spine -2.055160 40.363160 0.218993
Head -20.672206 72.471812 -24.473843
LeftShoulder -24.940429 22.911795 16.870159
LeftArm 9.750235 -20.743471 -44.330873
LeftForeArm 13.984112 -0.000000 14.216102
LeftHand -30.680590 0.000000 3.041985
LeftHandThumb1 -26.253704 0.000000 33.147579
RightShoulder -14.121689 13.514963 -25.231405
RightArm -16.042986 -13.355973 83.681193
RightForeArm 12.295922 0.000000 60.574360
RightHand -2.285666 0.000000 12.693316
RightHandThumb1 -24.326973 -0.000000 -32.862282
LeftUpLeg -97.966927 -30.853461 -18.819832
LeftLeg 110.568621 -0.000000 -0.000000
LeftFoot 21.217222 5.211852 -15.164133
LeftToeBase 12.321874 -0.000000 -0.000000
RightUpLeg -10.354819 16.992568 -8.462439
RightLeg 26.788037 -0.000000 -0.000000
RightFoot -16.030432 11.128443 -9.083741
RightToeBase -14.362910 -0.000000 0.000000
3269
root -3.231212 33.082541 -0.456515 -8.895545 -49.631724 14.019458
Spine -2.046757 40.411229 0.306814
Head -20.900761 72.465741 -24.615376
LeftShoulder -24.960918 22.952559 16.887960
LeftArm 9.741335 -20.774579 -44.369207
LeftForeArm 13.986140 -0.000000 14.214539
LeftHand -30.663545 -0.000000 3.075504
LeftHandThumb1 -26.253704 0.000000 33.147579
RightShoulder -14.161531 13.462762 -25.202093
RightArm -16.176631 -13.283648 83.630761
RightForeArm 12.294795 -0.000000 60.735948
RightHand -2.356695 -0.000000 12.692265
RightHandThumb1 -24.326973 -0.000000 -32.862282
LeftUpLeg -97.861893 -30.925451 -18.921529
LeftLeg 110.599499 -0.000000 -0.000000
LeftFoot 21.243829 5.141766 -15.090099
LeftToeBase 12.474036 -0.000000 -0.000000
RightUpLeg -10.285029 16.996458 -8.363697
RightLeg 26.738358 -0.000000 -0.000000
RightFoot -16.022765 11.160518 -9.162444
RightToeBase -14.418064 -0.000000 0.000000
3270
root -3.242922 33.080260 -0.457300 -8.866149 -49.714293 13.918068
Spine -2.033034 40.462292 0.392694
Head -21.148268 72.467974 -24.767555
LeftShoulder -24.967858 22.950530 16.911973
LeftArm 9.679678 -20.737324 -44.356372
LeftForeArm 13.944292 -0.000000 14.226182
LeftHand -30.718396 -0.000000 3.101451
LeftHandThumb1 -26.253704 0.000000 33.147579
RightShoulder -14.183120 13.424161 -25.184150
RightArm -16.312068 -13.183828 83.600790
RightForeArm 12.287368 -0.000000 60.877444
RightHand -2.426898 -0.000000 12.681533
RightHandThumb1 -24.326973 -0.000000 -32.862282
LeftUpLeg -97.768709 -30.990065 -19.004178
LeftLeg 110.639004 -0.000000 -0.000000
LeftFoot 21.318181 5.053218 -15.231138
LeftToeBase 12.408165 -0.000000 -0.000000
RightUpLeg -10.214310 17.051617 -8.252671
RightLeg 26.699747 -0.000000 -0.000000
RightFoot -16.054983 11.132059 -9.264061
RightToeBase -14.319588 -0.000000 0.000000
3271
root -3.252261 33.077736 -0.458875 -8.847598 -49.798255 13.837901
Spine -2.015658 40.531648 0.465880
Head -21.330490 72.473540 -24.859521
LeftShoulder -24.939366 22.964968 16.945025
LeftArm 9.617323 -20.729320 -44.359728
LeftForeArm 13.935092 -0.000000 14.219918
LeftHand -30.710521 -0.000000 3.105965
LeftHandThumb1 -26.253704 0.000000 33.147579
RightShoulder -14.224387 13.372973 -25.174559
RightArm -16.417559 -13.116053 83.563378
RightForeArm 12.276433 -0.000000 60.995247
RightHand -2.444966 -0.000000 12.608570
RightHandThumb1 -24.326973 -0.000000 -32.862282
LeftUpLeg -97.673732 -31.058986 -19.123975
LeftLeg 110.661734 -0.000000 -0.000000
LeftFoot 21.409143 5.034709 -15.220693
LeftToeBase 12.139676 -0.000000 -0.000000
RightUpLeg -10.161178 17.133595 -8.164901
RightLeg 26.665781 -0.000000 -0.000000
RightFoot -16.002785 11.165469 -9.237722
RightToeBase -14.532308 -0.000000 0.000000
3272
root -3.261394 33.075576 -0.460994 -8.824541 -49.873764 13.761864
Spine -2.007294 40.576181 0.522903
Head -21.564218 72.472292 -25.008611
LeftShoulder -24.933644 22.982993 16.977041
LeftArm 9.565641 -20.680678 -44.363527
LeftForeArm 13.965367 -0.000000 14.190573
LeftHand -30.686670 -0.000000 3.102835
LeftHandThumb1 -26.253704 0.000000 33.147579
RightShoulder -14.249908 13.328826 -25.144323
RightArm -16.515562 -13.082257 83.494487
RightForeArm 12.292808 -0.000000 61.132317
RightHand -2.510062 -0.000000 12.613715
RightHandThumb1 -24.326973 -0.000000 -32.862282
LeftUpLeg -97.585547 -31.135985 -19.209668
LeftLeg 110.670988 -0.000000 -0.000000
LeftFoot 21.421923 4.837642 -15.197288
LeftToeBase 12.329353 -0.000000 -0.000000
RightUpLeg -10.112197 17.225297 -8.079101
RightLeg 26.639829 -0.000000 -0.000000
RightFoot -16.017464 11.091533 -9.395375
RightToeBase -14.561644 -0.000000 0.000000
